PathFileType	4	(X/Y/Z)	C:/Users/beibeiliu/ov580/test_trc/User3\sequence.9_training_dense_left.trc
DataRate	CameraRate	NumFrames	NumMarkers	Units	OrigDataRate	OrigDataStartFrame	OrigNumFrames
120	120	9	19	mm	120	1	153
Frame#	Time	ThumbCMC			ThumbMCP			ThumbIP			ThumbTip			IndexMCP			IndexPIP			IndexTip			MiddleMCP			MiddlePIP			MiddleTip			RingMCP			RingPIP			RingTip			PinkyMCP			PinkyPIP			PinkyTip			BackHand1			BackHand2			BackHand3	
		X0	Y0	Z0	X1	Y1	Z1	X2	Y2	Z2	X3	Y3	Z3	X4	Y4	Z4	X5	Y5	Z5	X6	Y6	Z6	X7	Y7	Z7	X8	Y8	Z8	X9	Y9	Z9	X10	Y10	Z10	X11	Y11	Z11	X12	Y12	Z12	X13	Y13	Z13	X14	Y14	Z14	X15	Y15	Z15	X16	Y16	Z16	X17	Y17	Z17	X18	Y18	Z18	
0	0	-157.188	-33.5636	23.408	-144.176	-44.4139	-3.27429	-129.997	-50.243	-30.1875	-127.941	-59.3611	-56.3776	-191.669	-6.7908	-42.6815	-185.323	-7.28211	-71.7376	-179.827	-23.0056	-100.742	-215.476	-9.57282	-45.1595	-217.231	-13.7223	-77.3178	-212.819	-39.7543	-102.167	-227.613	-36.3733	-42.1565	-223.341	-59.7895	-58.538	-206.941	-83.7694	-40.6579	-237.991	-59.9334	-25.6681	-222.239	-79.5797	-26.7261	-203.697	-75.6666	-1.94491	-227.377	-19.7283	13.1768	-220.94	-27.1822	48.3973	-193.919	-12.2791	25.1674	
1	0.00833333	-159.727	-34.055	21.1983	-144.076	-43.2635	-4.74545	-136.019	-50.7111	-30.4314	-129.981	-60.2393	-55.8607	-193.177	-6.68105	-44.3525	-187.916	-8.17384	-76.1379	-182.678	-24.3629	-101.32	-216.138	-9.48997	-47.9901	-217.365	-13.1635	-75.4639	-213.983	-40.7775	-102.204	-232.832	-37.5981	-39.9049	-223.223	-60.0207	-58.2223	-204.542	-85.8097	-37.7165	-238.056	-56.9097	-22.8026	-219.102	-81.9707	-24.3797	-205.126	-80.0107	-0.635531	-229.08	-22.6252	16.7016	-221.542	-25.5545	45.7795	-194.017	-12.7324	22.8725	
2	0.0166667	-160.822	-35.473	23.6025	-146.864	-44.479	-1.3239	-133.886	-51.4898	-33.0573	-131.993	-60.4858	-50.7161	-189.68	-6.11169	-47.1935	-189.232	-8.27186	-73.0831	-180.056	-20.7397	-97.607	-219.393	-11.3656	-43.8369	-218.707	-14.8183	-75.6589	-212.308	-38.4439	-101.575	-229.336	-36.1535	-38.0705	-222.33	-64.7004	-57.0621	-206.878	-86.4524	-37.8968	-240.062	-59.6687	-23.9794	-221.689	-82.8764	-24.5755	-206.549	-79.044	-1.20942	-231.355	-23.483	16.9666	-221.913	-28.0591	45.5336	-196.247	-15.037	26.2966	
3	0.025	-159.1	-33.8074	19.2024	-148.326	-44.4765	-3.85369	-135.73	-51.4322	-30.4176	-130.992	-60.5521	-49.3286	-192.981	-7.14113	-45.9992	-185.773	-7.67007	-75.8656	-186.102	-20.7241	-96.1825	-217.311	-11.4137	-42.2442	-219.296	-15.6681	-77.054	-214.926	-39.4328	-101.324	-229.334	-37.1735	-40.3916	-223.839	-64.358	-56.9555	-207.666	-84.7168	-42.8325	-236.983	-56.8448	-22.5191	-219.68	-80.6599	-27.6028	-204.949	-81.8615	-1.08138	-230.471	-23.9348	13.9906	-226.379	-29.283	45.4996	-196.293	-13.7977	23.7247	
4	0.0333333	-162.948	-36.0824	23.9193	-147.315	-44.5809	-5.14593	-133.057	-51.7678	-28.7735	-129.223	-61.0488	-51.3369	-190.228	-6.64586	-42.1525	-187.593	-6.34756	-70.6604	-181.58	-18.5649	-96.1652	-216.305	-8.69949	-47.222	-216.473	-16.1514	-78.6826	-212.9	-36.8732	-100.962	-233.155	-39.874	-38.5445	-222.08	-65.1667	-57.5197	-206.889	-86.438	-37.8643	-240.002	-61.9881	-23.8372	-220.558	-79.3192	-28.0513	-205.462	-81.9045	-0.556355	-231.756	-23.1211	15.2559	-222.053	-26.754	43.6494	-196.988	-15.3347	23.9444	
5	0.0416667	-163.056	-35.7114	19.848	-148.207	-44.5875	-4.19103	-136.168	-51.4511	-32.3106	-129.343	-61.1007	-52.6456	-189.295	-7.23334	-41.0317	-190.159	-8.80559	-74.3157	-182.381	-19.362	-95.9709	-219.802	-11.1129	-45.9373	-217.757	-14.3635	-76.2832	-215.792	-39.3245	-100.354	-233.666	-40.281	-38.6061	-224.87	-66.6355	-56.1156	-209.967	-86.8814	-39.5236	-238.982	-59.7987	-24.4345	-222.363	-79.5656	-28.4334	-208.341	-81.2094	-0.443718	-227.776	-23.003	17.9691	-223.472	-29.115	45.7273	-193.501	-14.9309	24.7306	
6	0.05	-160.473	-35.4238	19.8631	-145.669	-45.1117	-5.25292	-136.523	-53.8515	-27.814	-131.454	-61.5121	-50.7541	-193.657	-8.41397	-46.2035	-186.953	-8.71976	-70.7141	-185.005	-21.6418	-96.259	-220.867	-12.2369	-46.4201	-217.913	-14.6007	-74.2778	-214.343	-41.1715	-102.338	-229.557	-38.4724	-37.0234	-225.443	-64.6396	-56.1122	-204.98	-87.9444	-38.0328	-240.45	-62.4565	-23.7563	-219.868	-83.52	-24.1509	-207.571	-81.4094	1.35281	-225.962	-25.1275	17.6756	-224.193	-30.1799	47.65	-196.491	-15.2967	26.7584	
7	0.0583333	-160.153	-37.1497	24.6603	-146.235	-47.3052	-1.92829	-133.305	-53.5966	-31.5308	-128.259	-63.1	-51.3257	-192.781	-9.64574	-45.0887	-186.656	-12.3028	-75.5256	-186.592	-23.8745	-96.8077	-219.222	-13.4404	-46.4024	-219.193	-17.4098	-74.8575	-211.308	-44.7426	-103.565	-230.049	-39.747	-38.3092	-228.048	-67.4337	-54.98	-210.265	-88.8585	-39.1491	-240.264	-64.3193	-25.9197	-222.704	-83.4135	-26.0338	-207.057	-80.5623	3.16486	-231.237	-27.5036	18.6436	-224.619	-30.6118	45.802	-194.185	-14.5958	25.4099	
8	0.0666667	-160.977	-38.3259	21.9813	-147.748	-47.9879	-4.4263	-137.621	-54.9658	-29.2639	-131.985	-63.6219	-54.0864	-192.398	-10.9241	-42.6725	-188.111	-12.8674	-76.1523	-181.132	-27.1364	-100.149	-218.018	-14.3165	-43.0276	-221.439	-20.3419	-77.6845	-214.042	-43.855	-101.802	-232.108	-41.3338	-39.4468	-228.17	-67.1828	-55.7431	-206.597	-88.8425	-39.0029	-242.216	-62.5482	-21.9291	-224.017	-83.8029	-26.856	-207.842	-83.9391	1.62511	-228.874	-27.2567	16.5625	-224.213	-32.306	48.6564	-194.998	-18.0994	26.0777	
